HIERARCHY
ROOT Hips
{
	OFFSET -0.001795 -0.223333 0.028219
	CHANNELS 6 Xposition Yposition Zposition Zrotation Yrotation Xrotation 
	JOINT LeftUpLeg
	{
		OFFSET 0.069520 -0.091406 -0.006815
		CHANNELS 3 Zrotation Yrotation Xrotation
		JOINT LeftLeg
		{
			OFFSET 0.034277 -0.375199 -0.004496
			CHANNELS 3 Zrotation Yrotation Xrotation
			JOINT LeftFoot
			{
				OFFSET -0.013596 -0.397961 -0.043693
				CHANNELS 3 Zrotation Yrotation Xrotation
				JOINT LeftToe
				{
					OFFSET 0.026358 -0.055791 0.119288
					CHANNELS 3 Zrotation Yrotation Xrotation
					End Site
					{
						OFFSET 0.000000 0.000000 0.000000
					}
				}
			}
		}
	}
	JOINT RightUpLeg
	{
		OFFSET -0.067670 -0.090522 -0.004320
		CHANNELS 3 Zrotation Yrotation Xrotation
		JOINT RightLeg
		{
			OFFSET -0.038290 -0.382569 -0.008850
			CHANNELS 3 Zrotation Yrotation Xrotation
			JOINT RightFoot
			{
				OFFSET 0.015774 -0.398415 -0.042312
				CHANNELS 3 Zrotation Yrotation Xrotation
				JOINT RightToe
				{
					OFFSET -0.025372 -0.048144 0.123348
					CHANNELS 3 Zrotation Yrotation Xrotation
					End Site
					{
						OFFSET 0.000000 0.000000 0.000000
					}
				}
			}
		}
	}
	JOINT Spine
	{
		OFFSET -0.002533 0.108963 -0.026696
		CHANNELS 3 Zrotation Yrotation Xrotation
		JOINT Spine1
		{
			OFFSET 0.005487 0.135180 0.001092
			CHANNELS 3 Zrotation Yrotation Xrotation
			JOINT Spine2
			{
				OFFSET 0.001457 0.052922 0.025425
				CHANNELS 3 Zrotation Yrotation Xrotation
				JOINT Neck
				{
					OFFSET -0.002778 0.213870 -0.042857
					CHANNELS 3 Zrotation Yrotation Xrotation
					JOINT Head
					{
						OFFSET 0.005152 0.064970 0.051349
						CHANNELS 3 Zrotation Yrotation Xrotation
						End Site
						{
							OFFSET 0.000000 0.000000 0.000000
						}
					}
				}
				JOINT LeftShoulder
				{
					OFFSET 0.078845 0.121749 -0.034090
					CHANNELS 3 Zrotation Yrotation Xrotation
					JOINT LeftArm
					{
						OFFSET 0.090977 0.030469 -0.008868
						CHANNELS 3 Zrotation Yrotation Xrotation
						JOINT LeftForeArm
						{
							OFFSET 0.259612 -0.012772 -0.027456
							CHANNELS 3 Zrotation Yrotation Xrotation
							JOINT LeftHand
							{
								OFFSET 0.249234 0.008986 -0.001171
								CHANNELS 3 Zrotation Yrotation Xrotation
								End Site
								{
									OFFSET 0.000000 0.000000 0.000000
								}
							}
						}
					}
				}
				JOINT RightShoulder
				{
					OFFSET -0.081759 0.118833 -0.038615
					CHANNELS 3 Zrotation Yrotation Xrotation
					JOINT RightArm
					{
						OFFSET -0.096012 0.032551 -0.009143
						CHANNELS 3 Zrotation Yrotation Xrotation
						JOINT RightForeArm
						{
							OFFSET -0.253742 -0.013329 -0.021401
							CHANNELS 3 Zrotation Yrotation Xrotation
							JOINT RightHand
							{
								OFFSET -0.255298 0.007772 -0.005559
								CHANNELS 3 Zrotation Yrotation Xrotation
								End Site
								{
									OFFSET 0.000000 0.000000 0.000000
								}
							}
						}
					}
				}
			}
		}
	}
}
MOTION
Frames: 10
Frame Time: 0.050000
0.222937 0.861396 -0.037663 -3.619674 5.366701 22.141979 19.640638 2.299766 -52.888582 -8.291860 2.499057 41.731208 6.913367 15.003423 -4.049074 0.000000 0.000000 0.000000 -15.758950 -2.112033 -47.648519 11.571358 -4.694101 36.569802 -9.114050 -23.603613 -2.264813 0.000000 0.000000 0.000000 0.878401 -1.521103 22.651382 0.158984 0.151461 -6.295083 3.520949 -3.464710 7.636961 -6.764074 4.546894 -26.205333 0.000000 0.000000 0.000000 8.777717 1.424067 0.203945 -19.880663 -28.730999 1.029821 131.320711 -18.742742 -31.282475 0.000000 0.000000 0.000000 -13.599780 2.605012 1.843188 21.011684 29.519911 1.525836 -138.658446 19.089113 -37.009082 0.000000 0.000000 0.000000 
0.219942 0.887921 -0.016512 -3.210960 5.097018 19.247258 17.260098 1.005456 -44.386318 -4.535644 0.474165 34.212339 5.684737 12.370457 -1.550278 0.000000 0.000000 0.000000 -13.233532 -0.598989 -39.034973 8.515295 -2.602572 28.773195 -8.706085 -22.366021 -1.759646 0.000000 0.000000 0.000000 -0.738031 -0.681841 16.528799 1.755401 -0.519573 -4.968392 3.649024 -5.194616 6.714198 -6.593725 4.431845 -22.790599 0.000000 0.000000 0.000000 10.339463 4.085249 -0.529527 -22.844768 -29.875545 1.954966 129.347651 -14.529101 -21.754996 0.000000 0.000000 0.000000 -12.841823 1.202872 1.670632 22.736351 32.949748 2.317372 -139.694164 17.068718 -35.333569 0.000000 0.000000 0.000000 
0.218701 0.908434 0.004544 -3.113138 5.367455 16.555132 15.535152 0.204974 -35.792026 -0.809358 -0.883994 26.750884 4.567707 9.951744 -0.530429 0.000000 0.000000 0.000000 -11.363207 0.104564 -32.288409 5.982349 -1.417928 23.850465 -8.576031 -21.510270 1.406306 0.000000 0.000000 0.000000 -1.100545 -0.363915 11.345032 1.801637 -0.462474 -6.365918 3.736750 -7.151785 7.316998 -6.129209 4.154810 -19.351155 0.000000 0.000000 0.000000 11.633544 4.493510 -0.715554 -23.299393 -32.030190 2.629787 126.194399 -11.759366 -14.802786 0.000000 0.000000 0.000000 -13.264769 -0.224109 1.582515 21.706491 37.439963 2.524686 -135.591729 16.839811 -33.489232 0.000000 0.000000 0.000000 
0.219426 0.923829 0.020579 -2.930997 4.620565 15.143557 14.559237 -0.051786 -28.770904 0.556779 -0.934839 19.324987 3.946651 9.143289 1.738275 0.000000 0.000000 0.000000 -9.445914 0.674429 -26.816213 3.043963 -0.319851 18.197629 -7.658594 -19.235423 3.141106 0.000000 0.000000 0.000000 -2.087118 -0.004662 5.131708 2.077912 -0.588815 -6.220681 3.179841 -7.798147 6.419475 -6.147205 4.217056 -15.648118 0.000000 0.000000 0.000000 15.833271 4.435065 -0.482137 -22.403567 -35.220760 3.359128 119.053034 -10.660538 -10.313300 0.000000 0.000000 0.000000 -17.127611 -0.642026 2.156311 20.721457 39.672852 2.471566 -128.969818 14.762916 -26.637278 0.000000 0.000000 0.000000 
0.221060 0.934984 0.031797 -2.692881 5.095305 13.382886 13.487545 -0.320401 -23.507921 2.001908 -1.036774 14.364706 2.618275 7.267628 4.389183 0.000000 0.000000 0.000000 -8.068806 0.835417 -22.108394 0.981597 0.189696 14.578552 -7.294872 -18.262551 5.660925 0.000000 0.000000 0.000000 -2.022007 0.070978 1.553394 1.918404 -0.549311 -5.782357 2.843209 -8.758426 4.587301 -5.852449 4.087440 -12.470743 0.000000 0.000000 0.000000 18.336223 3.015325 -0.084811 -18.321094 -37.965776 3.109888 113.859314 -9.538804 -7.264762 0.000000 0.000000 0.000000 -21.095101 0.005108 2.976814 14.718306 41.482443 0.859718 -122.019136 12.170081 -20.241668 0.000000 0.000000 0.000000 
0.223318 0.943397 0.039785 -2.829107 3.717143 12.486134 12.868583 -0.334077 -19.357800 2.803910 -0.885779 9.728751 1.989913 6.790519 6.940592 0.000000 0.000000 0.000000 -6.847877 0.987285 -18.543752 -0.684125 0.507141 10.959639 -6.103864 -15.810691 6.566997 0.000000 0.000000 0.000000 -2.305660 0.152840 -1.732116 1.683618 -0.454120 -6.148526 3.116921 -8.293882 3.958057 -4.601511 3.327669 -9.812301 0.000000 0.000000 0.000000 22.087904 2.768303 0.128527 -18.049944 -39.716530 3.522009 111.691706 -7.062616 -3.265624 0.000000 0.000000 0.000000 -26.356492 -0.095172 3.730862 10.822014 42.341192 -0.399881 -116.897881 8.874258 -14.280325 0.000000 0.000000 0.000000 
0.225574 0.948981 0.046811 -2.950870 3.410189 11.551945 12.100925 -0.403458 -16.266529 4.000205 -0.878712 6.627876 1.078585 5.665467 8.620520 0.000000 0.000000 0.000000 -6.272487 0.953896 -15.731390 -1.036093 0.471788 8.149801 -5.742354 -15.135696 7.876729 0.000000 0.000000 0.000000 -2.348616 0.182647 -3.691474 1.614444 -0.405651 -6.702559 3.013614 -8.778498 3.994064 -4.356437 3.140144 -9.176213 0.000000 0.000000 0.000000 23.514387 3.618141 -0.048070 -17.149271 -39.160501 3.309906 112.249411 -8.045446 -4.248540 0.000000 0.000000 0.000000 -29.945074 -1.224142 4.240941 8.884163 42.323540 -1.164223 -114.165222 5.683342 -9.867593 0.000000 0.000000 0.000000 
0.227790 0.952593 0.053628 -2.815384 3.070531 11.088688 11.339792 -0.455493 -13.522854 4.440021 -0.740289 3.892947 0.619989 5.413889 10.378977 0.000000 0.000000 0.000000 -5.988322 0.896604 -13.551747 -1.184147 0.410395 6.083054 -5.558094 -14.798824 8.204425 0.000000 0.000000 0.000000 -2.915797 0.211636 -5.580486 1.458502 -0.320546 -7.329398 3.180565 -8.776234 4.093571 -3.531136 2.582093 -8.198883 0.000000 0.000000 0.000000 25.184797 5.084824 -0.173139 -18.817410 -38.729826 3.772423 112.925642 -10.251540 -7.223166 0.000000 0.000000 0.000000 -32.032591 -2.236891 4.497372 9.957805 41.051881 -0.871075 -114.004073 5.832715 -10.478719 0.000000 0.000000 0.000000 
0.229367 0.954805 0.060554 -2.803471 2.820822 10.302044 10.861657 -0.459258 -12.052696 5.157697 -0.759751 2.901187 0.000276 4.607869 11.160589 0.000000 0.000000 0.000000 -5.410380 0.833956 -11.431106 -2.063896 0.485973 4.827899 -5.351080 -14.437611 8.765617 0.000000 0.000000 0.000000 -3.083395 0.214296 -6.606057 1.143544 -0.189664 -7.625730 3.130275 -8.694770 4.360171 -3.434261 2.530500 -7.271842 0.000000 0.000000 0.000000 25.771627 6.960905 -0.380153 -19.939751 -37.089760 3.757495 114.630080 -12.481219 -10.664721 0.000000 0.000000 0.000000 -31.740017 -3.600251 4.378527 11.238348 38.172020 -0.465894 -114.444537 6.744333 -12.157512 0.000000 0.000000 0.000000 
0.230149 0.956623 0.067414 -2.918047 2.656811 9.750005 10.728567 -0.448659 -10.779634 5.046181 -0.657959 1.790962 -0.399625 4.108388 11.703219 0.000000 0.000000 0.000000 -5.389279 0.738454 -9.543241 -1.814636 0.392096 3.724520 -5.032570 -13.866024 9.356825 0.000000 0.000000 0.000000 -3.118897 0.215983 -7.309408 0.726861 -0.014420 -8.067528 2.856704 -7.734268 4.803398 -2.921866 2.221469 -6.532633 0.000000 0.000000 0.000000 26.080286 7.795539 -0.262518 -20.604461 -34.441522 3.247679 117.495404 -14.491905 -15.095874 0.000000 0.000000 0.000000 -32.837979 -5.638428 4.169407 15.913347 33.816570 0.651834 -114.618981 9.715134 -16.020379 0.000000 0.000000 0.000000 
